<svg width="1024" height="1024" viewBox="0 0 1024 1024" fill="none" xmlns="http://www.w3.org/2000/svg">
<path fill-rule="evenodd" clip-rule="evenodd" d="M643.933 187.528C681.209 172.088 722.227 168.049 761.799 175.92C801.371 183.791 837.72 203.22 866.25 231.75C894.78 260.28 914.209 296.629 922.08 336.201C929.951 375.773 925.912 416.791 910.472 454.067C895.031 491.344 868.884 523.204 835.336 545.62C801.788 568.036 762.347 580 722 580H688L710 472H722C740.987 472 759.548 466.37 775.335 455.821C791.122 445.273 803.426 430.279 810.692 412.737C817.958 395.196 819.859 375.894 816.155 357.271C812.451 338.649 803.308 321.544 789.882 308.118C776.456 294.692 759.351 285.549 740.729 281.845C722.106 278.141 702.804 280.042 685.263 287.308C667.721 294.574 652.727 306.878 642.179 322.665C631.63 338.452 626 357.013 626 376V855L518 877V376C518 335.653 529.964 296.212 552.38 262.664C574.796 229.116 606.656 202.969 643.933 187.528ZM759.457 187.689C722.213 180.281 683.608 184.083 648.524 198.615C613.441 213.147 583.455 237.756 562.357 269.33C541.26 300.904 530 338.026 530 376V864L614 846V376H614.007C614.007 354.641 620.341 333.761 632.207 316.002C644.073 298.243 660.94 284.401 680.673 276.228C700.406 268.054 722.12 265.915 743.068 270.082C764.017 274.249 783.259 284.535 798.362 299.638C813.465 314.741 823.751 333.983 827.918 354.932C832.085 375.88 829.946 397.594 821.772 417.327C813.599 437.06 799.757 453.927 781.998 465.793C764.239 477.659 743.359 483.993 722 483.993V484H718L702 568H722C759.974 568 797.096 556.74 828.67 535.643C860.244 514.545 884.853 484.559 899.385 449.476C913.917 414.392 917.719 375.787 910.311 338.543C902.902 301.299 884.616 267.087 857.765 240.235C830.913 213.384 796.701 195.098 759.457 187.689Z" fill="white"/>
<path fill-rule="evenodd" clip-rule="evenodd" d="M506 672C506 698.79 500.724 725.317 490.472 750.067C480.22 774.818 465.193 797.307 446.25 816.25C427.307 835.193 404.818 850.22 380.067 860.472C355.317 870.724 328.79 876 302 876C275.21 876 248.683 870.724 223.933 860.472C199.182 850.22 176.693 835.193 157.75 816.25C138.807 797.307 123.78 774.818 113.528 750.067C103.276 725.317 98 698.79 98 672V629L206 607V672C206 697.461 216.115 721.878 234.118 739.882C252.122 757.885 276.539 768 302 768C327.461 768 351.878 757.885 369.882 739.882C387.885 721.878 398 697.461 398 672V169L506 147V672ZM410 177.845V670H410.106C410.106 698.672 398.717 726.169 378.443 746.443C358.169 766.717 330.672 778.106 302 778.106C273.328 778.106 245.831 766.717 225.557 746.443C205.283 726.169 193.894 698.672 193.894 670H194V620L110 636.571V670C110 720.922 130.228 769.758 166.235 805.765C202.242 841.772 251.078 862 302 862C352.922 862 401.758 841.772 437.765 805.765C473.772 769.758 494 720.922 494 670V160L410 177.845Z" fill="white"/>
</svg>
