<svg width="1024" height="1024" viewBox="0 0 1024 1024" fill="none" xmlns="http://www.w3.org/2000/svg">
<path d="M310 673C310 676.314 307.314 679 304 679C300.686 679 298 676.314 298 673C298 669.686 300.686 667 304 667C307.314 667 310 669.686 310 673ZM301 673C301 674.657 302.343 676 304 676C305.657 676 307 674.657 307 673C307 671.343 305.657 670 304 670C302.343 670 301 671.343 301 673Z" fill="white"/>
<rect x="218" y="671" width="82" height="4" fill="white"/>
<rect x="214" y="667" width="4" height="12" fill="white"/>
<rect x="214" y="667" width="4" height="12" fill="white"/>
<path d="M246.148 667V655.364H250.511C251.405 655.364 252.155 655.519 252.761 655.83C253.371 656.14 253.831 656.576 254.142 657.136C254.456 657.693 254.614 658.343 254.614 659.085C254.614 659.831 254.455 660.479 254.136 661.028C253.822 661.574 253.358 661.996 252.744 662.295C252.131 662.591 251.377 662.739 250.483 662.739H247.375V660.989H250.199C250.722 660.989 251.15 660.917 251.483 660.773C251.816 660.625 252.063 660.411 252.222 660.131C252.384 659.847 252.466 659.498 252.466 659.085C252.466 658.672 252.384 658.32 252.222 658.028C252.059 657.733 251.811 657.509 251.477 657.358C251.144 657.203 250.714 657.125 250.188 657.125H248.256V667H246.148ZM252.159 661.727L255.04 667H252.688L249.858 661.727H252.159ZM256.44 667V665.477L260.48 661.517C260.866 661.127 261.188 660.78 261.446 660.477C261.704 660.174 261.897 659.881 262.026 659.597C262.154 659.312 262.219 659.009 262.219 658.688C262.219 658.32 262.135 658.006 261.969 657.744C261.802 657.479 261.573 657.275 261.281 657.131C260.99 656.987 260.658 656.915 260.287 656.915C259.904 656.915 259.569 656.994 259.281 657.153C258.993 657.309 258.77 657.53 258.611 657.818C258.455 658.106 258.378 658.449 258.378 658.847H256.372C256.372 658.108 256.541 657.466 256.878 656.92C257.215 656.375 257.679 655.953 258.27 655.653C258.865 655.354 259.546 655.205 260.315 655.205C261.096 655.205 261.781 655.35 262.372 655.642C262.963 655.934 263.421 656.333 263.747 656.841C264.077 657.348 264.241 657.928 264.241 658.58C264.241 659.015 264.158 659.443 263.991 659.864C263.825 660.284 263.531 660.75 263.111 661.261C262.694 661.773 262.109 662.392 261.355 663.119L259.349 665.159V665.239H264.418V667H256.44ZM265.918 664.841V663.165L270.855 655.364H272.253V657.75H271.401L268.077 663.017V663.108H274.969V664.841H265.918ZM271.469 667V664.33L271.491 663.58V655.364H273.48V667H271.469Z" fill="white"/>
<path d="M728 376C728 379.314 725.314 382 722 382C718.686 382 716 379.314 716 376C716 372.686 718.686 370 722 370C725.314 370 728 372.686 728 376ZM719 376C719 377.657 720.343 379 722 379C723.657 379 725 377.657 725 376C725 374.343 723.657 373 722 373C720.343 373 719 374.343 719 376Z" fill="white"/>
<rect x="726" y="374" width="80" height="4" fill="white"/>
<rect x="806" y="370" width="4" height="12" fill="white"/>
<rect x="806" y="370" width="4" height="12" fill="white"/>
<path d="M749.148 370V358.364H753.511C754.405 358.364 755.155 358.519 755.761 358.83C756.371 359.14 756.831 359.576 757.142 360.136C757.456 360.693 757.614 361.343 757.614 362.085C757.614 362.831 757.455 363.479 757.136 364.028C756.822 364.574 756.358 364.996 755.744 365.295C755.131 365.591 754.377 365.739 753.483 365.739H750.375V363.989H753.199C753.722 363.989 754.15 363.917 754.483 363.773C754.816 363.625 755.063 363.411 755.222 363.131C755.384 362.847 755.466 362.498 755.466 362.085C755.466 361.672 755.384 361.32 755.222 361.028C755.059 360.733 754.811 360.509 754.477 360.358C754.144 360.203 753.714 360.125 753.188 360.125H751.256V370H749.148ZM755.159 364.727L758.04 370H755.688L752.858 364.727H755.159ZM759.44 370V368.477L763.48 364.517C763.866 364.127 764.188 363.78 764.446 363.477C764.704 363.174 764.897 362.881 765.026 362.597C765.154 362.312 765.219 362.009 765.219 361.688C765.219 361.32 765.135 361.006 764.969 360.744C764.802 360.479 764.573 360.275 764.281 360.131C763.99 359.987 763.658 359.915 763.287 359.915C762.904 359.915 762.569 359.994 762.281 360.153C761.993 360.309 761.77 360.53 761.611 360.818C761.455 361.106 761.378 361.449 761.378 361.847H759.372C759.372 361.108 759.541 360.466 759.878 359.92C760.215 359.375 760.679 358.953 761.27 358.653C761.865 358.354 762.546 358.205 763.315 358.205C764.096 358.205 764.781 358.35 765.372 358.642C765.963 358.934 766.421 359.333 766.747 359.841C767.077 360.348 767.241 360.928 767.241 361.58C767.241 362.015 767.158 362.443 766.991 362.864C766.825 363.284 766.531 363.75 766.111 364.261C765.694 364.773 765.109 365.392 764.355 366.119L762.349 368.159V368.239H767.418V370H759.44ZM768.918 367.841V366.165L773.855 358.364H775.253V360.75H774.401L771.077 366.017V366.108H777.969V367.841H768.918ZM774.469 370V367.33L774.491 366.58V358.364H776.48V370H774.469Z" fill="white"/>
<rect x="102" y="591" width="100" height="4" fill="white"/>
<rect x="98" y="587" width="4" height="12" fill="white"/>
<rect x="98" y="587" width="4" height="12" fill="white"/>
<rect x="202" y="587" width="4" height="12" fill="white"/>
<rect x="202" y="587" width="4" height="12" fill="white"/>
<path d="M142.034 587V585.477L146.074 581.517C146.46 581.127 146.782 580.78 147.04 580.477C147.297 580.174 147.491 579.881 147.619 579.597C147.748 579.312 147.812 579.009 147.812 578.688C147.812 578.32 147.729 578.006 147.562 577.744C147.396 577.479 147.167 577.275 146.875 577.131C146.583 576.987 146.252 576.915 145.881 576.915C145.498 576.915 145.163 576.994 144.875 577.153C144.587 577.309 144.364 577.53 144.205 577.818C144.049 578.106 143.972 578.449 143.972 578.847H141.966C141.966 578.108 142.134 577.466 142.472 576.92C142.809 576.375 143.273 575.953 143.864 575.653C144.458 575.354 145.14 575.205 145.909 575.205C146.689 575.205 147.375 575.35 147.966 575.642C148.557 575.934 149.015 576.333 149.341 576.841C149.67 577.348 149.835 577.928 149.835 578.58C149.835 579.015 149.752 579.443 149.585 579.864C149.419 580.284 149.125 580.75 148.705 581.261C148.288 581.773 147.703 582.392 146.949 583.119L144.943 585.159V585.239H150.011V587H142.034ZM151.511 584.841V583.165L156.449 575.364H157.847V577.75H156.994L153.67 583.017V583.108H160.562V584.841H151.511ZM157.062 587V584.33L157.085 583.58V575.364H159.074V587H157.062Z" fill="white"/>
<rect x="402" y="131" width="100" height="4" fill="white"/>
<rect x="398" y="127" width="4" height="12" fill="white"/>
<rect x="398" y="127" width="4" height="12" fill="white"/>
<rect x="502" y="127" width="4" height="12" fill="white"/>
<rect x="502" y="127" width="4" height="12" fill="white"/>
<path d="M442.034 127V125.477L446.074 121.517C446.46 121.127 446.782 120.78 447.04 120.477C447.297 120.174 447.491 119.881 447.619 119.597C447.748 119.312 447.812 119.009 447.812 118.688C447.812 118.32 447.729 118.006 447.562 117.744C447.396 117.479 447.167 117.275 446.875 117.131C446.583 116.987 446.252 116.915 445.881 116.915C445.498 116.915 445.163 116.994 444.875 117.153C444.587 117.309 444.364 117.53 444.205 117.818C444.049 118.106 443.972 118.449 443.972 118.847H441.966C441.966 118.108 442.134 117.466 442.472 116.92C442.809 116.375 443.273 115.953 443.864 115.653C444.458 115.354 445.14 115.205 445.909 115.205C446.689 115.205 447.375 115.35 447.966 115.642C448.557 115.934 449.015 116.333 449.341 116.841C449.67 117.348 449.835 117.928 449.835 118.58C449.835 119.015 449.752 119.443 449.585 119.864C449.419 120.284 449.125 120.75 448.705 121.261C448.288 121.773 447.703 122.392 446.949 123.119L444.943 125.159V125.239H450.011V127H442.034ZM451.511 124.841V123.165L456.449 115.364H457.847V117.75H456.994L453.67 123.017V123.108H460.562V124.841H451.511ZM457.062 127V124.33L457.085 123.58V115.364H459.074V127H457.062Z" fill="white"/>
<rect x="522" y="889" width="100" height="4" fill="white"/>
<rect x="518" y="885" width="4" height="12" fill="white"/>
<rect x="518" y="885" width="4" height="12" fill="white"/>
<rect x="622" y="885" width="4" height="12" fill="white"/>
<rect x="622" y="885" width="4" height="12" fill="white"/>
<path d="M562.034 885V883.477L566.074 879.517C566.46 879.127 566.782 878.78 567.04 878.477C567.297 878.174 567.491 877.881 567.619 877.597C567.748 877.312 567.812 877.009 567.812 876.688C567.812 876.32 567.729 876.006 567.562 875.744C567.396 875.479 567.167 875.275 566.875 875.131C566.583 874.987 566.252 874.915 565.881 874.915C565.498 874.915 565.163 874.994 564.875 875.153C564.587 875.309 564.364 875.53 564.205 875.818C564.049 876.106 563.972 876.449 563.972 876.847H561.966C561.966 876.108 562.134 875.466 562.472 874.92C562.809 874.375 563.273 873.953 563.864 873.653C564.458 873.354 565.14 873.205 565.909 873.205C566.689 873.205 567.375 873.35 567.966 873.642C568.557 873.934 569.015 874.333 569.341 874.841C569.67 875.348 569.835 875.928 569.835 876.58C569.835 877.015 569.752 877.443 569.585 877.864C569.419 878.284 569.125 878.75 568.705 879.261C568.288 879.773 567.703 880.392 566.949 881.119L564.943 883.159V883.239H570.011V885H562.034ZM571.511 882.841V881.165L576.449 873.364H577.847V875.75H576.994L573.67 881.017V881.108H580.562V882.841H571.511ZM577.062 885V882.33L577.085 881.58V873.364H579.074V885H577.062Z" fill="white"/>
<rect x="692" y="591" width="32" height="4" fill="white"/>
<rect x="688" y="587" width="4" height="12" fill="white"/>
<rect x="688" y="587" width="4" height="12" fill="white"/>
<rect x="722" y="587" width="4" height="12" fill="white"/>
<rect x="722" y="587" width="4" height="12" fill="white"/>
<path d="M704.767 600.364V612H702.659V602.415H702.591L699.869 604.153V602.222L702.761 600.364H704.767ZM707.722 612V610.477L711.761 606.517C712.148 606.127 712.47 605.78 712.727 605.477C712.985 605.174 713.178 604.881 713.307 604.597C713.436 604.312 713.5 604.009 713.5 603.688C713.5 603.32 713.417 603.006 713.25 602.744C713.083 602.479 712.854 602.275 712.562 602.131C712.271 601.987 711.939 601.915 711.568 601.915C711.186 601.915 710.85 601.994 710.562 602.153C710.275 602.309 710.051 602.53 709.892 602.818C709.737 603.106 709.659 603.449 709.659 603.847H707.653C707.653 603.108 707.822 602.466 708.159 601.92C708.496 601.375 708.96 600.953 709.551 600.653C710.146 600.354 710.828 600.205 711.597 600.205C712.377 600.205 713.063 600.35 713.653 600.642C714.244 600.934 714.703 601.333 715.028 601.841C715.358 602.348 715.523 602.928 715.523 603.58C715.523 604.015 715.439 604.443 715.273 604.864C715.106 605.284 714.813 605.75 714.392 606.261C713.975 606.773 713.39 607.392 712.636 608.119L710.631 610.159V610.239H715.699V612H707.722Z" fill="white"/>
<rect x="712" y="456" width="10" height="4" fill="white"/>
<rect x="708" y="452" width="4" height="12" fill="white"/>
<rect x="708" y="452" width="4" height="12" fill="white"/>
<rect x="720" y="452" width="4" height="12" fill="white"/>
<rect x="720" y="452" width="4" height="12" fill="white"/>
<path d="M710.824 446.841V445.165L715.761 437.364H717.159V439.75H716.307L712.983 445.017V445.108H719.875V446.841H710.824ZM716.375 449V446.33L716.398 445.58V437.364H718.386V449H716.375Z" fill="white"/>
<rect x="82" y="672" width="39" height="4" transform="rotate(-90 82 672)" fill="white"/>
<rect x="78" y="633" width="4" height="12" transform="rotate(-90 78 633)" fill="white"/>
<rect x="78" y="633" width="4" height="12" transform="rotate(-90 78 633)" fill="white"/>
<rect x="78" y="675" width="4" height="12" transform="rotate(-90 78 675)" fill="white"/>
<rect x="78" y="675" width="4" height="12" transform="rotate(-90 78 675)" fill="white"/>
<path d="M65.767 646.364V658H63.6591V648.415H63.5909L60.8693 650.153V648.222L63.7614 646.364H65.767ZM68.7216 658V656.477L72.7614 652.517C73.1477 652.127 73.4697 651.78 73.7273 651.477C73.9848 651.174 74.178 650.881 74.3068 650.597C74.4356 650.312 74.5 650.009 74.5 649.688C74.5 649.32 74.4167 649.006 74.25 648.744C74.0833 648.479 73.8542 648.275 73.5625 648.131C73.2708 647.987 72.9394 647.915 72.5682 647.915C72.1856 647.915 71.8504 647.994 71.5625 648.153C71.2746 648.309 71.0511 648.53 70.892 648.818C70.7367 649.106 70.6591 649.449 70.6591 649.847H68.6534C68.6534 649.108 68.822 648.466 69.1591 647.92C69.4962 647.375 69.9602 646.953 70.5511 646.653C71.1458 646.354 71.8277 646.205 72.5966 646.205C73.3769 646.205 74.0625 646.35 74.6534 646.642C75.2443 646.934 75.7027 647.333 76.0284 647.841C76.358 648.348 76.5227 648.928 76.5227 649.58C76.5227 650.015 76.4394 650.443 76.2727 650.864C76.1061 651.284 75.8125 651.75 75.392 652.261C74.9754 652.773 74.3902 653.392 73.6364 654.119L71.6307 656.159V656.239H76.6989V658H68.7216Z" fill="white"/>
<rect x="382" y="671" width="498" height="4" transform="rotate(-90 382 671)" fill="white"/>
<rect x="378" y="173" width="4" height="12" transform="rotate(-90 378 173)" fill="white"/>
<rect x="378" y="173" width="4" height="12" transform="rotate(-90 378 173)" fill="white"/>
<rect x="378" y="675" width="4" height="12" transform="rotate(-90 378 675)" fill="white"/>
<rect x="378" y="675" width="4" height="12" transform="rotate(-90 378 675)" fill="white"/>
<path d="M355.767 415.364V427H353.659V417.415H353.591L350.869 419.153V417.222L353.761 415.364H355.767ZM358.722 427V425.477L362.761 421.517C363.148 421.127 363.47 420.78 363.727 420.477C363.985 420.174 364.178 419.881 364.307 419.597C364.436 419.312 364.5 419.009 364.5 418.688C364.5 418.32 364.417 418.006 364.25 417.744C364.083 417.479 363.854 417.275 363.562 417.131C363.271 416.987 362.939 416.915 362.568 416.915C362.186 416.915 361.85 416.994 361.562 417.153C361.275 417.309 361.051 417.53 360.892 417.818C360.737 418.106 360.659 418.449 360.659 418.847H358.653C358.653 418.108 358.822 417.466 359.159 416.92C359.496 416.375 359.96 415.953 360.551 415.653C361.146 415.354 361.828 415.205 362.597 415.205C363.377 415.205 364.063 415.35 364.653 415.642C365.244 415.934 365.703 416.333 366.028 416.841C366.358 417.348 366.523 417.928 366.523 418.58C366.523 419.015 366.439 419.443 366.273 419.864C366.106 420.284 365.813 420.75 365.392 421.261C364.975 421.773 364.39 422.392 363.636 423.119L361.631 425.159V425.239H366.699V427H358.722ZM372.795 427.159C371.951 427.159 371.201 427.017 370.545 426.733C369.894 426.449 369.383 426.061 369.011 425.568C368.644 425.072 368.462 424.509 368.466 423.881C368.462 423.392 368.568 422.943 368.784 422.534C369 422.125 369.292 421.784 369.659 421.511C370.03 421.235 370.443 421.059 370.898 420.983V420.903C370.299 420.771 369.814 420.466 369.443 419.989C369.076 419.508 368.894 418.953 368.898 418.324C368.894 417.725 369.061 417.191 369.398 416.722C369.735 416.252 370.197 415.883 370.784 415.614C371.371 415.341 372.042 415.205 372.795 415.205C373.542 415.205 374.206 415.341 374.79 415.614C375.377 415.883 375.839 416.252 376.176 416.722C376.517 417.191 376.688 417.725 376.688 418.324C376.688 418.953 376.5 419.508 376.125 419.989C375.754 420.466 375.275 420.771 374.688 420.903V420.983C375.142 421.059 375.551 421.235 375.915 421.511C376.282 421.784 376.574 422.125 376.79 422.534C377.009 422.943 377.119 423.392 377.119 423.881C377.119 424.509 376.934 425.072 376.562 425.568C376.191 426.061 375.68 426.449 375.028 426.733C374.381 427.017 373.636 427.159 372.795 427.159ZM372.795 425.534C373.231 425.534 373.61 425.46 373.932 425.312C374.254 425.161 374.504 424.949 374.682 424.676C374.86 424.403 374.951 424.089 374.955 423.733C374.951 423.362 374.854 423.034 374.665 422.75C374.479 422.462 374.223 422.237 373.898 422.074C373.576 421.911 373.208 421.83 372.795 421.83C372.379 421.83 372.008 421.911 371.682 422.074C371.356 422.237 371.098 422.462 370.909 422.75C370.723 423.034 370.633 423.362 370.636 423.733C370.633 424.089 370.72 424.403 370.898 424.676C371.076 424.945 371.326 425.155 371.648 425.307C371.973 425.458 372.356 425.534 372.795 425.534ZM372.795 420.233C373.152 420.233 373.466 420.161 373.739 420.017C374.015 419.873 374.233 419.672 374.392 419.415C374.551 419.157 374.633 418.86 374.636 418.523C374.633 418.189 374.553 417.898 374.398 417.648C374.242 417.394 374.027 417.199 373.75 417.062C373.473 416.922 373.155 416.852 372.795 416.852C372.428 416.852 372.104 416.922 371.824 417.062C371.547 417.199 371.331 417.394 371.176 417.648C371.025 417.898 370.951 418.189 370.955 418.523C370.951 418.86 371.027 419.157 371.182 419.415C371.341 419.669 371.559 419.869 371.835 420.017C372.116 420.161 372.436 420.233 372.795 420.233Z" fill="white"/>
<rect x="638" y="851" width="475" height="4" transform="rotate(-90 638 851)" fill="white"/>
<rect x="634" y="378" width="4" height="12" transform="rotate(-90 634 378)" fill="white"/>
<rect x="634" y="378" width="4" height="12" transform="rotate(-90 634 378)" fill="white"/>
<rect x="634" y="855" width="4" height="12" transform="rotate(-90 634 855)" fill="white"/>
<rect x="634" y="855" width="4" height="12" transform="rotate(-90 634 855)" fill="white"/>
<path d="M651.767 596.364V608H649.659V598.415H649.591L646.869 600.153V598.222L649.761 596.364H651.767ZM654.722 608V606.477L658.761 602.517C659.148 602.127 659.47 601.78 659.727 601.477C659.985 601.174 660.178 600.881 660.307 600.597C660.436 600.312 660.5 600.009 660.5 599.688C660.5 599.32 660.417 599.006 660.25 598.744C660.083 598.479 659.854 598.275 659.562 598.131C659.271 597.987 658.939 597.915 658.568 597.915C658.186 597.915 657.85 597.994 657.562 598.153C657.275 598.309 657.051 598.53 656.892 598.818C656.737 599.106 656.659 599.449 656.659 599.847H654.653C654.653 599.108 654.822 598.466 655.159 597.92C655.496 597.375 655.96 596.953 656.551 596.653C657.146 596.354 657.828 596.205 658.597 596.205C659.377 596.205 660.063 596.35 660.653 596.642C661.244 596.934 661.703 597.333 662.028 597.841C662.358 598.348 662.523 598.928 662.523 599.58C662.523 600.015 662.439 600.443 662.273 600.864C662.106 601.284 661.813 601.75 661.392 602.261C660.975 602.773 660.39 603.392 659.636 604.119L657.631 606.159V606.239H662.699V608H654.722ZM668.795 608.159C667.951 608.159 667.201 608.017 666.545 607.733C665.894 607.449 665.383 607.061 665.011 606.568C664.644 606.072 664.462 605.509 664.466 604.881C664.462 604.392 664.568 603.943 664.784 603.534C665 603.125 665.292 602.784 665.659 602.511C666.03 602.235 666.443 602.059 666.898 601.983V601.903C666.299 601.771 665.814 601.466 665.443 600.989C665.076 600.508 664.894 599.953 664.898 599.324C664.894 598.725 665.061 598.191 665.398 597.722C665.735 597.252 666.197 596.883 666.784 596.614C667.371 596.341 668.042 596.205 668.795 596.205C669.542 596.205 670.206 596.341 670.79 596.614C671.377 596.883 671.839 597.252 672.176 597.722C672.517 598.191 672.688 598.725 672.688 599.324C672.688 599.953 672.5 600.508 672.125 600.989C671.754 601.466 671.275 601.771 670.688 601.903V601.983C671.142 602.059 671.551 602.235 671.915 602.511C672.282 602.784 672.574 603.125 672.79 603.534C673.009 603.943 673.119 604.392 673.119 604.881C673.119 605.509 672.934 606.072 672.562 606.568C672.191 607.061 671.68 607.449 671.028 607.733C670.381 608.017 669.636 608.159 668.795 608.159ZM668.795 606.534C669.231 606.534 669.61 606.46 669.932 606.312C670.254 606.161 670.504 605.949 670.682 605.676C670.86 605.403 670.951 605.089 670.955 604.733C670.951 604.362 670.854 604.034 670.665 603.75C670.479 603.462 670.223 603.237 669.898 603.074C669.576 602.911 669.208 602.83 668.795 602.83C668.379 602.83 668.008 602.911 667.682 603.074C667.356 603.237 667.098 603.462 666.909 603.75C666.723 604.034 666.633 604.362 666.636 604.733C666.633 605.089 666.72 605.403 666.898 605.676C667.076 605.945 667.326 606.155 667.648 606.307C667.973 606.458 668.356 606.534 668.795 606.534ZM668.795 601.233C669.152 601.233 669.466 601.161 669.739 601.017C670.015 600.873 670.233 600.672 670.392 600.415C670.551 600.157 670.633 599.86 670.636 599.523C670.633 599.189 670.553 598.898 670.398 598.648C670.242 598.394 670.027 598.199 669.75 598.062C669.473 597.922 669.155 597.852 668.795 597.852C668.428 597.852 668.104 597.922 667.824 598.062C667.547 598.199 667.331 598.394 667.176 598.648C667.025 598.898 666.951 599.189 666.955 599.523C666.951 599.86 667.027 600.157 667.182 600.415C667.341 600.669 667.559 600.869 667.835 601.017C668.116 601.161 668.436 601.233 668.795 601.233Z" fill="white"/>
<rect x="218" y="629" width="18" height="4" transform="rotate(-90 218 629)" fill="white"/>
<rect x="214" y="611" width="4" height="12" transform="rotate(-90 214 611)" fill="white"/>
<rect x="214" y="611" width="4" height="12" transform="rotate(-90 214 611)" fill="white"/>
<rect x="214" y="633" width="4" height="12" transform="rotate(-90 214 633)" fill="white"/>
<rect x="214" y="633" width="4" height="12" transform="rotate(-90 214 633)" fill="white"/>
<path d="M231.17 627.159C230.326 627.159 229.576 627.017 228.92 626.733C228.269 626.449 227.758 626.061 227.386 625.568C227.019 625.072 226.837 624.509 226.841 623.881C226.837 623.392 226.943 622.943 227.159 622.534C227.375 622.125 227.667 621.784 228.034 621.511C228.405 621.235 228.818 621.059 229.273 620.983V620.903C228.674 620.771 228.189 620.466 227.818 619.989C227.451 619.508 227.269 618.953 227.273 618.324C227.269 617.725 227.436 617.191 227.773 616.722C228.11 616.252 228.572 615.883 229.159 615.614C229.746 615.341 230.417 615.205 231.17 615.205C231.917 615.205 232.581 615.341 233.165 615.614C233.752 615.883 234.214 616.252 234.551 616.722C234.892 617.191 235.062 617.725 235.062 618.324C235.062 618.953 234.875 619.508 234.5 619.989C234.129 620.466 233.65 620.771 233.062 620.903V620.983C233.517 621.059 233.926 621.235 234.29 621.511C234.657 621.784 234.949 622.125 235.165 622.534C235.384 622.943 235.494 623.392 235.494 623.881C235.494 624.509 235.309 625.072 234.938 625.568C234.566 626.061 234.055 626.449 233.403 626.733C232.756 627.017 232.011 627.159 231.17 627.159ZM231.17 625.534C231.606 625.534 231.985 625.46 232.307 625.312C232.629 625.161 232.879 624.949 233.057 624.676C233.235 624.403 233.326 624.089 233.33 623.733C233.326 623.362 233.229 623.034 233.04 622.75C232.854 622.462 232.598 622.237 232.273 622.074C231.951 621.911 231.583 621.83 231.17 621.83C230.754 621.83 230.383 621.911 230.057 622.074C229.731 622.237 229.473 622.462 229.284 622.75C229.098 623.034 229.008 623.362 229.011 623.733C229.008 624.089 229.095 624.403 229.273 624.676C229.451 624.945 229.701 625.155 230.023 625.307C230.348 625.458 230.731 625.534 231.17 625.534ZM231.17 620.233C231.527 620.233 231.841 620.161 232.114 620.017C232.39 619.873 232.608 619.672 232.767 619.415C232.926 619.157 233.008 618.86 233.011 618.523C233.008 618.189 232.928 617.898 232.773 617.648C232.617 617.394 232.402 617.199 232.125 617.062C231.848 616.922 231.53 616.852 231.17 616.852C230.803 616.852 230.479 616.922 230.199 617.062C229.922 617.199 229.706 617.394 229.551 617.648C229.4 617.898 229.326 618.189 229.33 618.523C229.326 618.86 229.402 619.157 229.557 619.415C229.716 619.669 229.934 619.869 230.21 620.017C230.491 620.161 230.811 620.233 231.17 620.233Z" fill="white"/>
<rect x="518" y="169" width="18" height="4" transform="rotate(-90 518 169)" fill="white"/>
<rect x="514" y="151" width="4" height="12" transform="rotate(-90 514 151)" fill="white"/>
<rect x="514" y="151" width="4" height="12" transform="rotate(-90 514 151)" fill="white"/>
<rect x="514" y="173" width="4" height="12" transform="rotate(-90 514 173)" fill="white"/>
<rect x="514" y="173" width="4" height="12" transform="rotate(-90 514 173)" fill="white"/>
<path d="M531.17 167.159C530.326 167.159 529.576 167.017 528.92 166.733C528.269 166.449 527.758 166.061 527.386 165.568C527.019 165.072 526.837 164.509 526.841 163.881C526.837 163.392 526.943 162.943 527.159 162.534C527.375 162.125 527.667 161.784 528.034 161.511C528.405 161.235 528.818 161.059 529.273 160.983V160.903C528.674 160.771 528.189 160.466 527.818 159.989C527.451 159.508 527.269 158.953 527.273 158.324C527.269 157.725 527.436 157.191 527.773 156.722C528.11 156.252 528.572 155.883 529.159 155.614C529.746 155.341 530.417 155.205 531.17 155.205C531.917 155.205 532.581 155.341 533.165 155.614C533.752 155.883 534.214 156.252 534.551 156.722C534.892 157.191 535.062 157.725 535.062 158.324C535.062 158.953 534.875 159.508 534.5 159.989C534.129 160.466 533.65 160.771 533.062 160.903V160.983C533.517 161.059 533.926 161.235 534.29 161.511C534.657 161.784 534.949 162.125 535.165 162.534C535.384 162.943 535.494 163.392 535.494 163.881C535.494 164.509 535.309 165.072 534.938 165.568C534.566 166.061 534.055 166.449 533.403 166.733C532.756 167.017 532.011 167.159 531.17 167.159ZM531.17 165.534C531.606 165.534 531.985 165.46 532.307 165.312C532.629 165.161 532.879 164.949 533.057 164.676C533.235 164.403 533.326 164.089 533.33 163.733C533.326 163.362 533.229 163.034 533.04 162.75C532.854 162.462 532.598 162.237 532.273 162.074C531.951 161.911 531.583 161.83 531.17 161.83C530.754 161.83 530.383 161.911 530.057 162.074C529.731 162.237 529.473 162.462 529.284 162.75C529.098 163.034 529.008 163.362 529.011 163.733C529.008 164.089 529.095 164.403 529.273 164.676C529.451 164.945 529.701 165.155 530.023 165.307C530.348 165.458 530.731 165.534 531.17 165.534ZM531.17 160.233C531.527 160.233 531.841 160.161 532.114 160.017C532.39 159.873 532.608 159.672 532.767 159.415C532.926 159.157 533.008 158.86 533.011 158.523C533.008 158.189 532.928 157.898 532.773 157.648C532.617 157.394 532.402 157.199 532.125 157.062C531.848 156.922 531.53 156.852 531.17 156.852C530.803 156.852 530.479 156.922 530.199 157.062C529.922 157.199 529.706 157.394 529.551 157.648C529.4 157.898 529.326 158.189 529.33 158.523C529.326 158.86 529.402 159.157 529.557 159.415C529.716 159.669 529.934 159.869 530.21 160.017C530.491 160.161 530.811 160.233 531.17 160.233Z" fill="white"/>
<rect x="502" y="873" width="18" height="4" transform="rotate(-90 502 873)" fill="white"/>
<rect x="498" y="855" width="4" height="12" transform="rotate(-90 498 855)" fill="white"/>
<rect x="498" y="855" width="4" height="12" transform="rotate(-90 498 855)" fill="white"/>
<rect x="498" y="877" width="4" height="12" transform="rotate(-90 498 877)" fill="white"/>
<rect x="498" y="877" width="4" height="12" transform="rotate(-90 498 877)" fill="white"/>
<path d="M493.17 870.159C492.326 870.159 491.576 870.017 490.92 869.733C490.269 869.449 489.758 869.061 489.386 868.568C489.019 868.072 488.837 867.509 488.841 866.881C488.837 866.392 488.943 865.943 489.159 865.534C489.375 865.125 489.667 864.784 490.034 864.511C490.405 864.235 490.818 864.059 491.273 863.983V863.903C490.674 863.771 490.189 863.466 489.818 862.989C489.451 862.508 489.269 861.953 489.273 861.324C489.269 860.725 489.436 860.191 489.773 859.722C490.11 859.252 490.572 858.883 491.159 858.614C491.746 858.341 492.417 858.205 493.17 858.205C493.917 858.205 494.581 858.341 495.165 858.614C495.752 858.883 496.214 859.252 496.551 859.722C496.892 860.191 497.062 860.725 497.062 861.324C497.062 861.953 496.875 862.508 496.5 862.989C496.129 863.466 495.65 863.771 495.062 863.903V863.983C495.517 864.059 495.926 864.235 496.29 864.511C496.657 864.784 496.949 865.125 497.165 865.534C497.384 865.943 497.494 866.392 497.494 866.881C497.494 867.509 497.309 868.072 496.938 868.568C496.566 869.061 496.055 869.449 495.403 869.733C494.756 870.017 494.011 870.159 493.17 870.159ZM493.17 868.534C493.606 868.534 493.985 868.46 494.307 868.312C494.629 868.161 494.879 867.949 495.057 867.676C495.235 867.403 495.326 867.089 495.33 866.733C495.326 866.362 495.229 866.034 495.04 865.75C494.854 865.462 494.598 865.237 494.273 865.074C493.951 864.911 493.583 864.83 493.17 864.83C492.754 864.83 492.383 864.911 492.057 865.074C491.731 865.237 491.473 865.462 491.284 865.75C491.098 866.034 491.008 866.362 491.011 866.733C491.008 867.089 491.095 867.403 491.273 867.676C491.451 867.945 491.701 868.155 492.023 868.307C492.348 868.458 492.731 868.534 493.17 868.534ZM493.17 863.233C493.527 863.233 493.841 863.161 494.114 863.017C494.39 862.873 494.608 862.672 494.767 862.415C494.926 862.157 495.008 861.86 495.011 861.523C495.008 861.189 494.928 860.898 494.773 860.648C494.617 860.394 494.402 860.199 494.125 860.062C493.848 859.922 493.53 859.852 493.17 859.852C492.803 859.852 492.479 859.922 492.199 860.062C491.922 860.199 491.706 860.394 491.551 860.648C491.4 860.898 491.326 861.189 491.33 861.523C491.326 861.86 491.402 862.157 491.557 862.415C491.716 862.669 491.934 862.869 492.21 863.017C492.491 863.161 492.811 863.233 493.17 863.233Z" fill="white"/>
</svg>
